# xmcd CD database file
#
# Track frame offsets:
#	150
#	13475
#	26831
#	38853
#	51008
#	64506
#	76551
#	88217
#	101417
#	116451
#	129426
#	141163
#
# Disc length: 2055 seconds
#
# Revision: 0
# Processed by: cddbd v1.5.2PL0 Copyright (c) Steve Scherf et al.
# Submitted via: CDex 1.70beta2
#
DISCID=9808050c
DTITLE=Sonora Matancera - Exitos de la Sonora Matancera
DYEAR=1999
DGENRE=Salsa
TTITLE0=El Yerbito Moderno
TTITLE1=Angustia
TTITLE2=Ay Cosita Linda
TTITLE3=Me voy pa' La Habana
TTITLE4=Total
TTITLE5=Virgen de Medianoche
TTITLE6=Amar y Vivir
TTITLE7=Señora Bonita
TTITLE8=Tu Voz
TTITLE9=En la Orilla del Mar
TTITLE10=El Año Viejo
TTITLE11=Cañonazo
EXTD=YEAR: 1999
EXTT0=
EXTT1=
EXTT2=
EXTT3=
EXTT4=
EXTT5=
EXTT6=
EXTT7=
EXTT8=
EXTT9=
EXTT10=
EXTT11=
PLAYORDER=
